<svg id="svg" version="1.1" xmlns="http://www.w3.org/2000/svg" xmlns:xlink="http://www.w3.org/1999/xlink" width="400" height="394.5762711864407" viewBox="0, 0, 400,394.5762711864407"><g id="svgg"><path id="path0" d="M65.027 20.698 C 64.953 20.772,63.767 20.825,62.390 20.818 C 60.155 20.806,59.348 20.988,60.169 21.319 C 60.325 21.382,60.258 21.441,60.019 21.451 C 59.781 21.461,59.632 21.515,59.688 21.571 C 59.745 21.628,60.601 21.505,61.590 21.298 C 63.253 20.951,73.725 20.913,199.548 20.799 L 335.706 20.676 200.433 20.620 C 126.033 20.590,65.100 20.625,65.027 20.698 M341.582 21.021 C 351.265 21.986,363.024 28.178,368.395 35.141 C 368.875 35.763,369.772 36.881,370.389 37.627 C 371.006 38.373,371.514 39.057,371.518 39.148 C 371.522 39.239,371.875 39.860,372.303 40.529 C 373.983 43.154,375.718 47.013,376.689 50.282 C 377.705 53.706,377.876 54.721,378.095 58.644 C 378.443 64.877,378.267 332.028,377.915 333.220 C 377.767 333.718,377.483 334.836,377.282 335.706 C 375.079 345.269,366.909 356.795,360.000 360.086 C 359.814 360.175,359.254 360.493,358.757 360.793 C 355.776 362.590,352.721 363.981,350.592 364.510 C 350.202 364.607,349.778 364.752,349.648 364.832 C 349.518 364.912,348.159 365.256,346.627 365.596 L 343.842 366.214 248.023 366.286 C 147.867 366.362,128.136 366.274,128.136 365.751 C 128.136 365.442,128.205 365.414,130.056 364.983 C 130.678 364.838,131.542 364.630,131.977 364.521 C 132.412 364.411,133.429 364.208,134.237 364.069 C 135.644 363.826,139.272 362.893,143.616 361.656 C 146.305 360.890,156.018 357.673,158.305 356.791 C 163.718 354.702,165.701 353.897,169.605 352.197 C 190.908 342.923,211.071 329.842,229.134 313.576 C 232.275 310.748,238.212 304.806,238.133 304.570 C 238.088 304.433,236.989 304.042,235.692 303.699 C 232.897 302.961,227.111 300.982,225.180 300.104 C 224.672 299.873,223.714 299.471,223.051 299.209 C 222.387 298.947,221.379 298.525,220.809 298.269 C 220.240 298.014,219.469 297.674,219.096 297.512 C 216.934 296.578,212.580 294.512,211.412 293.866 C 211.040 293.660,210.531 293.385,210.282 293.255 C 210.034 293.126,209.068 292.617,208.136 292.124 C 204.041 289.960,204.553 289.954,201.781 292.203 C 200.555 293.198,199.502 294.011,199.440 294.011 C 199.318 294.011,198.808 294.409,197.535 295.496 C 197.089 295.877,196.215 296.537,195.593 296.962 C 194.972 297.387,193.992 298.118,193.415 298.585 C 192.838 299.053,192.311 299.435,192.242 299.435 C 192.174 299.435,191.308 300.045,190.319 300.791 C 189.329 301.537,188.450 302.147,188.365 302.147 C 188.281 302.147,187.788 302.489,187.270 302.907 C 186.752 303.325,186.062 303.808,185.738 303.981 C 185.413 304.153,184.701 304.597,184.156 304.967 C 182.944 305.789,182.672 305.962,181.556 306.617 C 181.073 306.900,180.373 307.329,180.000 307.571 C 179.213 308.081,177.825 308.901,176.976 309.358 C 176.651 309.534,175.977 309.936,175.480 310.252 C 174.634 310.790,174.206 311.034,172.203 312.120 C 171.768 312.356,171.234 312.649,171.017 312.772 C 170.059 313.311,169.773 313.466,168.814 313.962 C 164.582 316.151,159.532 318.633,156.898 319.816 C 152.886 321.619,151.889 322.034,151.573 322.034 C 151.410 322.034,151.180 322.119,151.062 322.224 C 150.850 322.412,148.502 323.351,145.876 324.300 C 145.130 324.569,144.316 324.880,144.068 324.991 C 142.767 325.570,136.358 327.617,132.090 328.816 C 131.096 329.095,129.825 329.457,129.266 329.619 C 126.939 330.295,122.576 331.288,119.435 331.857 C 117.968 332.122,116.750 332.356,112.316 333.225 C 111.384 333.408,109.706 333.658,108.588 333.781 C 107.469 333.904,105.994 334.106,105.311 334.230 C 104.627 334.353,103.051 334.553,101.808 334.673 C 100.565 334.793,98.480 334.999,97.175 335.132 C 95.870 335.265,92.236 335.455,89.099 335.555 C 85.963 335.655,83.319 335.815,83.224 335.910 C 83.129 336.005,83.088 342.736,83.133 350.869 C 83.194 361.871,83.148 365.735,82.953 365.970 C 82.733 366.235,81.096 366.273,72.927 366.200 C 60.062 366.086,59.941 366.074,54.576 364.317 C 53.458 363.951,51.525 363.124,50.282 362.481 C 49.040 361.838,47.795 361.194,47.516 361.051 C 47.237 360.908,47.008 360.715,47.007 360.621 C 47.006 360.528,46.891 360.452,46.751 360.452 C 46.410 360.452,43.655 358.429,41.690 356.735 C 40.817 355.983,39.851 355.164,39.543 354.915 C 37.710 353.436,33.684 348.185,31.919 344.972 C 31.188 343.640,30.957 343.164,30.385 341.808 C 30.228 341.435,29.927 340.723,29.715 340.226 C 29.173 338.951,28.259 336.019,28.236 335.480 C 28.217 335.035,28.214 335.035,28.043 335.472 C 27.809 336.070,27.955 337.220,28.363 338.003 C 28.547 338.356,28.698 338.911,28.699 339.238 C 28.700 339.564,28.852 339.958,29.038 340.112 C 29.223 340.266,29.485 340.799,29.619 341.297 C 29.753 341.796,29.973 342.470,30.107 342.796 C 30.242 343.123,30.389 343.589,30.436 343.832 C 30.482 344.075,30.602 344.329,30.701 344.397 C 30.801 344.465,31.178 345.079,31.539 345.763 C 31.899 346.446,32.578 347.535,33.046 348.182 C 33.515 348.830,33.898 349.458,33.898 349.578 C 33.898 349.699,34.153 349.998,34.463 350.242 C 34.774 350.487,35.028 350.777,35.028 350.887 C 35.028 350.997,35.232 351.233,35.480 351.412 C 35.729 351.592,35.932 351.865,35.932 352.019 C 35.932 352.174,36.136 352.409,36.384 352.542 C 36.633 352.675,36.836 352.933,36.836 353.115 C 36.836 353.297,36.989 353.446,37.175 353.446 C 37.362 353.446,37.514 353.533,37.514 353.639 C 37.514 353.866,38.808 355.254,39.020 355.254 C 39.100 355.254,39.531 355.638,39.978 356.106 C 40.425 356.575,41.067 357.099,41.405 357.270 C 41.742 357.442,41.955 357.694,41.877 357.831 C 41.799 357.967,41.813 358.009,41.908 357.924 C 42.003 357.839,42.751 358.322,43.570 358.997 C 44.389 359.673,45.149 360.226,45.257 360.226 C 45.366 360.226,45.899 360.531,46.441 360.904 C 46.983 361.277,47.519 361.582,47.633 361.582 C 47.747 361.582,48.024 361.785,48.249 362.034 C 48.474 362.282,48.781 362.486,48.932 362.486 C 49.082 362.486,50.089 362.937,51.169 363.488 C 52.249 364.039,53.457 364.559,53.854 364.644 C 54.251 364.729,54.673 364.857,54.792 364.927 C 55.908 365.591,58.831 366.322,60.381 366.325 C 61.336 366.326,62.404 366.441,62.754 366.579 C 64.509 367.271,65.915 367.419,69.492 367.289 C 74.618 367.103,74.912 367.103,77.175 367.309 C 78.294 367.411,79.311 367.501,79.435 367.509 C 79.959 367.543,81.620 367.227,82.007 367.020 C 82.238 366.896,82.474 366.843,82.533 366.902 C 82.591 366.961,82.824 366.804,83.050 366.555 C 83.673 365.866,125.040 365.840,126.389 366.527 C 127.806 367.250,129.409 367.318,132.082 366.771 C 134.274 366.322,134.667 366.304,136.785 366.552 C 138.319 366.731,142.783 366.811,150.056 366.789 C 163.317 366.750,179.912 367.009,179.761 367.252 C 179.586 367.536,182.977 367.573,217.175 367.664 C 306.954 367.901,340.234 367.802,341.130 367.296 C 341.646 367.005,344.788 366.403,346.022 366.360 C 346.475 366.345,347.289 366.143,347.830 365.912 C 348.371 365.681,349.195 365.421,349.661 365.335 C 350.127 365.248,350.508 365.100,350.508 365.006 C 350.508 364.912,350.992 364.725,351.582 364.591 C 353.031 364.262,355.124 363.440,355.217 363.163 C 355.258 363.039,355.463 362.938,355.672 362.938 C 355.881 362.938,356.431 362.734,356.895 362.486 C 357.359 362.237,357.876 362.034,358.043 362.034 C 358.211 362.034,358.532 361.831,358.757 361.582 C 358.982 361.333,359.287 361.130,359.435 361.130 C 359.583 361.130,359.888 360.927,360.113 360.678 C 360.338 360.429,360.643 360.226,360.791 360.226 C 360.939 360.226,361.231 360.037,361.441 359.805 C 361.650 359.574,362.225 359.203,362.719 358.980 C 363.212 358.757,363.616 358.489,363.616 358.384 C 363.616 358.278,363.727 358.192,363.863 358.192 C 364.461 358.192,372.429 349.586,372.429 348.941 C 372.429 348.642,373.613 346.893,373.815 346.893 C 373.912 346.893,374.057 346.540,374.138 346.110 C 374.218 345.679,374.426 345.209,374.600 345.065 C 374.773 344.921,374.915 344.669,374.915 344.504 C 374.915 344.339,375.144 343.957,375.424 343.655 C 375.704 343.353,376.118 342.509,376.345 341.779 C 376.572 341.049,377.000 339.944,377.297 339.322 C 377.858 338.148,377.988 337.489,378.203 334.753 C 378.284 333.725,378.557 332.595,378.940 331.702 L 379.548 330.282 379.610 196.966 C 379.673 63.431,379.642 57.532,378.874 56.050 C 378.574 55.473,378.469 54.768,378.475 53.394 C 378.480 52.365,378.395 51.468,378.288 51.402 C 378.180 51.335,378.025 50.777,377.944 50.161 C 377.862 49.546,377.602 48.819,377.366 48.547 C 377.130 48.275,376.878 47.791,376.805 47.472 C 376.493 46.099,375.760 43.832,375.596 43.730 C 375.497 43.669,375.100 42.963,374.713 42.162 C 374.326 41.360,373.915 40.645,373.799 40.573 C 373.683 40.502,373.442 40.165,373.263 39.826 C 373.084 39.487,372.765 38.879,372.554 38.475 C 372.343 38.071,372.074 37.740,371.955 37.740 C 371.837 37.740,371.644 37.486,371.525 37.175 C 371.407 36.864,371.157 36.610,370.970 36.610 C 370.783 36.610,370.571 36.381,370.499 36.102 C 370.427 35.822,370.024 35.339,369.603 35.028 C 369.183 34.718,368.716 34.238,368.566 33.963 C 368.416 33.687,368.206 33.516,368.100 33.581 C 367.993 33.647,367.847 33.546,367.774 33.356 C 367.701 33.167,367.448 32.950,367.211 32.875 C 366.974 32.799,366.780 32.592,366.780 32.414 C 366.780 32.122,366.506 31.991,366.045 32.064 C 365.952 32.078,365.876 31.996,365.876 31.880 C 365.876 31.764,365.678 31.606,365.435 31.529 C 365.139 31.435,365.040 31.263,365.132 31.005 C 365.208 30.794,365.189 30.694,365.091 30.783 C 364.799 31.047,364.072 30.535,364.213 30.166 C 364.307 29.922,364.181 29.831,363.753 29.831 C 363.372 29.831,363.164 29.707,363.164 29.481 C 363.164 29.288,362.875 29.009,362.523 28.859 C 362.139 28.697,361.924 28.462,361.987 28.274 C 362.051 28.085,361.992 28.022,361.840 28.116 C 361.701 28.202,361.459 28.163,361.302 28.030 C 361.145 27.897,360.773 27.587,360.474 27.340 C 360.175 27.094,360.023 26.889,360.135 26.885 C 360.504 26.871,358.541 26.004,358.122 25.996 C 357.897 25.992,357.776 25.887,357.853 25.763 C 357.930 25.638,357.779 25.537,357.517 25.537 C 357.255 25.537,356.805 25.282,356.517 24.972 C 356.181 24.609,355.749 24.407,355.309 24.407 C 354.909 24.407,354.571 24.266,354.495 24.068 C 354.423 23.881,354.234 23.728,354.075 23.727 C 353.916 23.727,353.480 23.564,353.107 23.365 C 352.196 22.880,350.077 22.137,349.379 22.058 C 348.829 21.996,348.385 21.858,347.458 21.460 C 346.793 21.175,345.066 20.993,342.260 20.912 C 339.871 20.844,339.844 20.848,341.582 21.021 M56.153 22.382 C 56.057 22.536,56.228 22.564,56.648 22.463 C 57.514 22.255,57.596 22.147,56.887 22.147 C 56.563 22.147,56.232 22.253,56.153 22.382 M53.730 22.975 C 53.886 23.038,53.950 23.193,53.872 23.319 C 53.789 23.453,53.929 23.442,54.210 23.291 C 54.853 22.947,54.813 22.821,54.068 22.843 C 53.726 22.853,53.574 22.912,53.730 22.975 M50.306 24.671 C 50.412 24.843,50.351 24.890,50.131 24.806 C 49.937 24.731,49.793 24.802,49.793 24.971 C 49.793 25.199,49.914 25.211,50.320 25.026 C 50.921 24.753,51.019 24.407,50.495 24.407 C 50.284 24.407,50.208 24.512,50.306 24.671 M44.367 28.171 C 44.449 28.253,44.391 28.482,44.239 28.680 C 44.070 28.900,44.158 28.873,44.467 28.609 C 45.071 28.094,45.087 28.023,44.595 28.023 C 44.388 28.023,44.285 28.090,44.367 28.171 M42.555 29.699 C 42.579 29.833,42.464 29.916,42.300 29.881 C 42.133 29.847,42.068 29.928,42.153 30.066 C 42.255 30.231,42.446 30.184,42.734 29.923 C 43.249 29.457,43.250 29.454,42.837 29.454 C 42.658 29.454,42.531 29.564,42.555 29.699 M41.171 30.478 C 41.008 30.582,40.843 30.860,40.806 31.096 C 40.769 31.332,40.578 31.512,40.383 31.496 C 40.187 31.480,39.974 31.607,39.908 31.779 C 39.726 32.253,40.118 32.152,40.849 31.537 C 41.326 31.136,41.788 30.231,41.488 30.286 C 41.477 30.288,41.335 30.374,41.171 30.478 M37.740 34.350 C 37.740 34.475,37.571 34.576,37.363 34.576 C 37.156 34.576,37.056 34.645,37.140 34.729 C 37.224 34.813,37.064 35.144,36.785 35.463 C 36.506 35.783,36.708 35.643,37.235 35.152 C 38.263 34.192,38.312 34.124,37.966 34.124 C 37.842 34.124,37.740 34.226,37.740 34.350 M30.386 44.762 C 30.301 44.899,30.331 45.111,30.453 45.233 C 30.598 45.377,30.721 45.334,30.808 45.107 C 30.966 44.695,30.608 44.402,30.386 44.762 M29.539 47.232 C 29.604 47.480,29.684 47.684,29.718 47.684 C 29.751 47.684,29.831 47.480,29.896 47.232 C 29.970 46.949,29.903 46.780,29.718 46.780 C 29.532 46.780,29.465 46.949,29.539 47.232 M28.794 49.209 C 28.881 49.364,28.855 49.492,28.735 49.492 C 28.615 49.492,28.575 49.713,28.646 49.983 L 28.774 50.475 28.970 49.945 C 29.100 49.595,29.076 49.332,28.900 49.171 C 28.706 48.992,28.677 49.003,28.794 49.209 M27.938 52.551 C 27.860 52.753,27.807 53.139,27.820 53.408 C 27.834 53.718,27.911 53.608,28.028 53.109 C 28.226 52.269,28.172 51.940,27.938 52.551 M27.010 58.675 C 26.798 60.937,26.804 324.899,27.017 329.580 C 27.120 331.872,27.291 333.386,27.487 333.762 C 27.656 334.085,27.794 334.494,27.795 334.670 C 27.796 334.847,27.848 334.939,27.912 334.875 C 27.975 334.812,27.848 333.956,27.629 332.973 C 27.252 331.278,27.232 324.133,27.232 194.068 C 27.232 118.653,27.218 56.949,27.202 56.949 C 27.185 56.949,27.099 57.726,27.010 58.675 M84.237 61.619 C 83.621 61.677,83.159 61.835,83.153 61.990 C 83.099 63.352,83.146 95.876,83.202 95.929 C 83.243 95.968,87.497 96.063,92.655 96.140 C 100.840 96.262,112.219 96.771,113.220 97.059 C 113.407 97.113,114.831 97.316,116.384 97.510 C 120.855 98.068,129.025 99.691,133.107 100.831 C 135.203 101.416,142.163 103.580,143.390 104.028 C 149.444 106.237,155.849 109.145,162.219 112.579 C 172.788 118.275,189.797 132.318,196.946 141.248 C 197.690 142.178,198.965 143.701,199.781 144.633 C 200.596 145.565,201.561 146.734,201.923 147.232 C 202.286 147.729,203.095 148.757,203.721 149.516 C 205.385 151.534,207.691 154.508,208.511 155.692 C 208.903 156.259,209.528 157.048,209.898 157.444 C 210.269 157.841,210.806 158.502,211.093 158.913 C 211.379 159.325,212.230 160.412,212.982 161.331 C 213.735 162.249,214.808 163.582,215.367 164.292 C 218.793 168.645,227.764 177.937,233.972 183.561 C 253.123 200.913,278.975 213.529,303.051 217.271 C 308.455 218.112,321.116 219.122,322.314 218.809 C 322.690 218.710,322.712 217.724,322.712 201.108 L 322.712 183.511 322.203 183.408 C 321.924 183.352,320.983 183.252,320.113 183.187 C 315.834 182.866,312.467 182.466,305.869 181.492 C 302.129 180.941,292.537 178.238,288.927 176.719 C 288.678 176.615,287.874 176.314,287.141 176.052 C 284.206 175.000,276.222 171.012,274.021 169.498 C 273.474 169.122,272.963 168.814,272.887 168.814 C 272.593 168.814,265.800 164.149,263.955 162.680 C 263.644 162.433,262.585 161.602,261.601 160.833 C 257.461 157.598,252.179 152.580,247.888 147.805 C 246.719 146.505,245.559 145.216,245.311 144.942 C 244.880 144.467,244.147 143.555,240.400 138.833 C 239.497 137.694,237.711 135.355,236.433 133.635 C 235.155 131.916,233.884 130.207,233.608 129.838 C 223.959 116.926,209.958 102.505,199.322 94.524 C 198.638 94.011,197.571 93.202,196.949 92.725 C 194.352 90.733,185.391 84.712,184.068 84.071 C 183.695 83.890,182.968 83.462,182.452 83.119 C 181.936 82.776,180.970 82.205,180.305 81.849 C 179.640 81.494,178.486 80.867,177.740 80.456 C 175.189 79.049,166.584 74.802,166.286 74.802 C 166.179 74.802,165.220 74.395,164.153 73.898 C 163.087 73.401,162.122 72.994,162.009 72.994 C 161.896 72.994,161.372 72.805,160.845 72.574 C 158.980 71.757,158.509 71.570,156.384 70.809 C 152.550 69.436,148.866 68.246,146.328 67.561 C 140.551 66.002,135.675 64.838,133.220 64.432 C 132.475 64.308,131.000 64.056,129.944 63.872 C 124.355 62.895,120.441 62.423,113.672 61.908 C 110.579 61.673,86.209 61.433,84.237 61.619 M83.245 133.390 C 83.133 133.550,83.079 140.996,83.122 150.536 L 83.199 167.399 90.018 167.521 C 111.206 167.901,122.128 171.309,134.802 181.496 C 139.056 184.915,147.212 193.480,150.097 197.558 C 150.979 198.805,153.955 202.832,157.288 207.288 C 158.593 209.033,160.052 211.031,160.531 211.728 C 161.009 212.424,161.474 213.045,161.564 213.107 C 161.653 213.169,162.171 213.831,162.714 214.576 C 167.551 221.214,185.287 239.517,191.665 244.452 C 192.115 244.800,193.296 245.746,194.291 246.554 C 199.504 250.789,203.202 253.479,209.612 257.698 C 220.401 264.800,229.706 269.602,243.503 275.190 C 251.251 278.328,266.429 282.917,270.395 283.321 L 271.525 283.436 274.358 280.532 C 276.947 277.876,280.469 273.912,283.955 269.729 C 284.701 268.834,286.089 267.195,287.039 266.085 C 289.821 262.839,296.897 253.784,297.020 253.313 C 297.121 252.925,297.001 252.881,295.840 252.881 C 295.128 252.881,293.994 252.789,293.318 252.677 C 292.643 252.564,291.023 252.352,289.718 252.204 C 288.412 252.056,285.565 251.577,283.390 251.139 C 281.215 250.701,278.977 250.256,278.418 250.149 C 277.859 250.043,277.045 249.860,276.610 249.744 C 276.175 249.627,274.650 249.224,273.220 248.847 C 270.725 248.190,264.781 246.321,263.842 245.897 C 263.593 245.785,262.780 245.473,262.034 245.204 C 259.407 244.255,257.060 243.316,256.847 243.128 C 256.729 243.023,256.510 242.938,256.359 242.938 C 256.111 242.938,254.979 242.446,251.299 240.739 C 247.910 239.168,240.837 235.540,239.784 234.833 C 239.468 234.621,238.904 234.301,238.531 234.122 C 238.158 233.944,237.274 233.413,236.566 232.944 C 235.858 232.474,235.217 232.090,235.141 232.090 C 235.065 232.090,234.404 231.684,233.672 231.186 C 232.940 230.689,232.242 230.282,232.122 230.282 C 232.001 230.282,231.868 230.193,231.827 230.084 C 231.785 229.975,230.480 229.044,228.927 228.015 C 227.373 226.986,226.051 226.076,225.989 225.993 C 225.927 225.910,225.215 225.399,224.407 224.859 C 223.599 224.318,222.887 223.811,222.825 223.731 C 222.763 223.651,222.203 223.243,221.582 222.824 C 220.175 221.875,218.767 220.793,218.312 220.311 C 218.122 220.109,217.203 219.349,216.271 218.621 C 214.099 216.924,207.268 210.810,204.633 208.203 C 200.604 204.219,193.593 196.672,191.977 194.582 C 191.605 194.099,190.531 192.756,189.591 191.598 C 188.652 190.439,187.380 188.831,186.766 188.023 C 186.152 187.215,185.591 186.503,185.519 186.441 C 185.446 186.379,184.506 185.158,183.429 183.729 C 182.352 182.299,181.241 180.828,180.961 180.459 C 180.681 180.089,179.388 178.360,178.087 176.617 C 176.786 174.873,175.109 172.734,174.358 171.864 C 173.608 170.993,172.591 169.780,172.099 169.168 C 169.056 165.387,160.734 157.488,155.028 152.965 C 153.038 151.388,146.845 147.119,146.547 147.119 C 146.475 147.119,145.817 146.712,145.085 146.215 C 144.353 145.718,143.604 145.311,143.421 145.311 C 143.238 145.311,143.055 145.222,143.013 145.114 C 142.833 144.643,134.552 140.736,131.017 139.454 C 130.302 139.195,129.184 138.787,128.531 138.547 C 127.172 138.047,123.485 136.885,122.147 136.534 C 116.504 135.057,113.969 134.607,107.345 133.908 C 100.454 133.181,83.649 132.819,83.245 133.390 M145.876 245.564 C 145.006 246.382,144.141 247.176,143.955 247.329 C 143.768 247.482,142.788 248.285,141.776 249.114 C 140.764 249.943,139.867 250.621,139.782 250.621 C 139.698 250.621,139.473 250.777,139.283 250.967 C 138.729 251.521,132.691 255.448,130.960 256.379 C 130.090 256.848,128.870 257.524,128.249 257.882 C 127.627 258.240,126.966 258.590,126.780 258.660 C 126.593 258.729,126.034 258.979,125.537 259.214 C 122.517 260.645,120.633 261.469,120.380 261.469 C 120.221 261.469,119.994 261.558,119.876 261.668 C 119.758 261.777,119.254 261.988,118.757 262.137 C 118.260 262.285,117.345 262.589,116.723 262.812 C 114.115 263.747,110.591 264.778,108.966 265.081 C 108.303 265.205,107.682 265.355,107.584 265.415 C 106.535 266.064,94.264 267.619,87.276 267.990 C 85.126 268.104,83.304 268.259,83.228 268.335 C 83.011 268.552,83.171 302.462,83.390 302.685 C 83.658 302.958,92.930 302.456,97.966 301.896 C 105.623 301.045,114.805 299.214,120.565 297.391 C 124.725 296.074,129.364 294.455,131.073 293.724 C 131.508 293.538,132.881 292.950,134.124 292.419 C 142.727 288.739,153.345 282.599,160.457 277.192 C 165.121 273.645,166.909 272.212,168.539 270.712 C 169.195 270.108,170.136 269.290,170.629 268.893 C 171.906 267.867,171.836 267.738,168.456 264.880 C 162.686 260.001,155.111 252.284,149.305 245.367 C 147.939 243.741,147.806 243.748,145.876 245.564 " stroke="none" fill="#fbfbfb" fill-rule="evenodd"></path><path id="path1" d="M64.520 20.948 C 64.023 20.994,62.701 21.193,61.582 21.389 C 60.463 21.586,59.345 21.778,59.096 21.815 C 58.847 21.853,58.644 21.898,58.644 21.915 C 58.644 21.943,56.189 22.639,55.099 22.921 C 54.890 22.975,54.509 23.132,54.252 23.269 C 53.995 23.406,53.785 23.462,53.785 23.393 C 53.785 23.323,53.556 23.416,53.277 23.600 C 52.997 23.783,52.718 23.924,52.655 23.913 C 52.593 23.903,51.475 24.436,50.169 25.099 C 48.864 25.761,47.720 26.283,47.627 26.259 C 47.534 26.235,47.458 26.306,47.458 26.418 C 47.458 26.530,47.076 26.845,46.610 27.118 C 45.382 27.837,44.042 28.836,42.015 30.546 C 41.033 31.374,40.152 32.086,40.058 32.127 C 39.699 32.287,35.834 36.783,34.991 38.023 C 34.505 38.737,34.004 39.322,33.877 39.322 C 33.750 39.322,33.708 39.424,33.785 39.548 C 33.862 39.672,33.817 39.774,33.686 39.774 C 33.554 39.774,33.469 39.850,33.497 39.944 C 33.524 40.037,33.387 40.367,33.191 40.678 C 32.227 42.205,31.445 43.648,30.801 45.085 C 29.555 47.864,29.313 48.463,29.223 48.992 C 29.174 49.276,29.021 49.785,28.883 50.122 C 28.540 50.956,28.572 50.836,27.862 54.011 L 27.232 56.836 27.232 194.011 L 27.232 331.186 27.757 333.559 C 28.404 336.483,29.063 338.709,29.763 340.339 C 30.057 341.023,30.383 341.785,30.488 342.034 C 31.568 344.601,32.617 346.396,34.779 349.379 C 36.163 351.287,38.697 354.233,39.543 354.915 C 39.851 355.164,40.817 355.983,41.690 356.735 C 43.655 358.429,46.410 360.452,46.751 360.452 C 46.891 360.452,47.006 360.528,47.007 360.621 C 47.008 360.715,47.237 360.908,47.516 361.051 C 47.795 361.194,49.040 361.838,50.282 362.481 C 51.525 363.124,53.458 363.951,54.576 364.317 C 59.941 366.074,60.062 366.086,72.927 366.200 C 81.096 366.273,82.733 366.235,82.953 365.970 C 83.148 365.735,83.194 361.871,83.133 350.869 C 83.088 342.736,83.129 336.005,83.224 335.910 C 83.319 335.815,85.963 335.655,89.099 335.555 C 92.236 335.455,95.870 335.265,97.175 335.132 C 98.480 334.999,100.565 334.793,101.808 334.673 C 103.051 334.553,104.627 334.353,105.311 334.230 C 105.994 334.106,107.469 333.904,108.588 333.781 C 109.706 333.658,111.384 333.408,112.316 333.225 C 116.750 332.356,117.968 332.122,119.435 331.857 C 122.576 331.288,126.939 330.295,129.266 329.619 C 129.825 329.457,131.096 329.095,132.090 328.816 C 136.358 327.617,142.767 325.570,144.068 324.991 C 144.316 324.880,145.130 324.569,145.876 324.300 C 148.502 323.351,150.850 322.412,151.062 322.224 C 151.180 322.119,151.410 322.034,151.573 322.034 C 151.845 322.034,152.284 321.859,154.915 320.707 C 158.504 319.134,163.548 316.687,168.814 313.962 C 169.773 313.466,170.059 313.311,171.017 312.772 C 171.234 312.649,171.768 312.356,172.203 312.120 C 174.206 311.034,174.634 310.790,175.480 310.252 C 175.977 309.936,176.651 309.534,176.976 309.358 C 177.825 308.901,179.213 308.081,180.000 307.571 C 180.373 307.329,181.073 306.900,181.556 306.617 C 182.672 305.962,182.944 305.789,184.156 304.967 C 184.701 304.597,185.413 304.153,185.738 303.981 C 186.062 303.808,186.752 303.325,187.270 302.907 C 187.788 302.489,188.281 302.147,188.365 302.147 C 188.450 302.147,189.329 301.537,190.319 300.791 C 191.308 300.045,192.174 299.435,192.242 299.435 C 192.311 299.435,192.838 299.053,193.415 298.585 C 193.992 298.118,194.972 297.387,195.593 296.962 C 196.215 296.537,197.089 295.877,197.535 295.496 C 198.808 294.409,199.318 294.011,199.440 294.011 C 199.502 294.011,200.555 293.198,201.781 292.203 C 204.553 289.954,204.041 289.960,208.136 292.124 C 209.068 292.617,210.034 293.126,210.282 293.255 C 210.531 293.385,211.040 293.660,211.412 293.866 C 212.580 294.512,216.934 296.578,219.096 297.512 C 219.469 297.674,220.240 298.014,220.809 298.269 C 221.379 298.525,222.387 298.947,223.051 299.209 C 223.714 299.471,224.672 299.873,225.180 300.104 C 227.111 300.982,232.897 302.961,235.692 303.699 C 236.989 304.042,238.088 304.433,238.133 304.570 C 238.212 304.806,232.275 310.748,229.134 313.576 C 211.071 329.842,190.908 342.923,169.605 352.197 C 165.701 353.897,163.718 354.702,158.305 356.791 C 156.018 357.673,146.305 360.890,143.616 361.656 C 139.272 362.893,135.644 363.826,134.237 364.069 C 133.429 364.208,132.412 364.411,131.977 364.521 C 131.542 364.630,130.678 364.838,130.056 364.983 C 128.205 365.414,128.136 365.442,128.136 365.751 C 128.136 366.274,147.867 366.362,248.023 366.286 L 343.842 366.214 346.627 365.596 C 348.159 365.256,349.518 364.912,349.648 364.832 C 349.778 364.752,350.202 364.607,350.592 364.510 C 352.721 363.981,355.776 362.590,358.757 360.793 C 359.254 360.493,359.814 360.175,360.000 360.086 C 364.427 357.977,371.027 350.569,374.151 344.204 C 375.926 340.589,376.544 338.912,377.282 335.706 C 377.483 334.836,377.767 333.718,377.915 333.220 C 378.267 332.028,378.443 64.877,378.095 58.644 C 377.876 54.721,377.705 53.706,376.689 50.282 C 375.718 47.013,373.983 43.154,372.303 40.529 C 371.875 39.860,371.522 39.239,371.518 39.148 C 371.514 39.057,371.006 38.373,370.389 37.627 C 369.772 36.881,368.875 35.763,368.395 35.141 C 363.729 29.092,354.316 23.616,344.972 21.514 L 342.260 20.904 203.842 20.884 C 127.712 20.874,65.017 20.902,64.520 20.948 M113.672 61.908 C 120.441 62.423,124.355 62.895,129.944 63.872 C 131.000 64.056,132.475 64.308,133.220 64.432 C 135.675 64.838,140.551 66.002,146.328 67.561 C 148.866 68.246,152.550 69.436,156.384 70.809 C 158.509 71.570,158.980 71.757,160.845 72.574 C 161.372 72.805,161.896 72.994,162.009 72.994 C 162.122 72.994,163.087 73.401,164.153 73.898 C 165.220 74.395,166.179 74.802,166.286 74.802 C 166.584 74.802,175.189 79.049,177.740 80.456 C 178.486 80.867,179.640 81.494,180.305 81.849 C 180.970 82.205,181.936 82.776,182.452 83.119 C 182.968 83.462,183.695 83.890,184.068 84.071 C 185.391 84.712,194.352 90.733,196.949 92.725 C 197.571 93.202,198.638 94.011,199.322 94.524 C 209.958 102.505,223.959 116.926,233.608 129.838 C 233.884 130.207,235.155 131.916,236.433 133.635 C 237.711 135.355,239.497 137.694,240.400 138.833 C 244.147 143.555,244.880 144.467,245.311 144.942 C 245.559 145.216,246.719 146.505,247.888 147.805 C 252.179 152.580,257.461 157.598,261.601 160.833 C 262.585 161.602,263.644 162.433,263.955 162.680 C 265.800 164.149,272.593 168.814,272.887 168.814 C 272.963 168.814,273.474 169.122,274.021 169.498 C 276.222 171.012,284.206 175.000,287.141 176.052 C 287.874 176.314,288.678 176.615,288.927 176.719 C 292.537 178.238,302.129 180.941,305.869 181.492 C 312.467 182.466,315.834 182.866,320.113 183.187 C 320.983 183.252,321.924 183.352,322.203 183.408 L 322.712 183.511 322.712 201.108 C 322.712 217.724,322.690 218.710,322.314 218.809 C 321.116 219.122,308.455 218.112,303.051 217.271 C 278.975 213.529,253.123 200.913,233.972 183.561 C 227.764 177.937,218.793 168.645,215.367 164.292 C 214.808 163.582,213.735 162.249,212.982 161.331 C 212.230 160.412,211.379 159.325,211.093 158.913 C 210.806 158.502,210.269 157.841,209.898 157.444 C 209.528 157.048,208.903 156.259,208.511 155.692 C 207.691 154.508,205.385 151.534,203.721 149.516 C 203.095 148.757,202.286 147.729,201.923 147.232 C 201.561 146.734,200.596 145.565,199.781 144.633 C 198.965 143.701,197.690 142.178,196.946 141.248 C 190.305 132.952,177.128 121.816,164.814 114.093 C 160.046 111.103,150.538 106.636,143.390 104.028 C 142.163 103.580,135.203 101.416,133.107 100.831 C 129.025 99.691,120.855 98.068,116.384 97.510 C 114.831 97.316,113.407 97.113,113.220 97.059 C 112.219 96.771,100.840 96.262,92.655 96.140 C 87.497 96.063,83.243 95.968,83.202 95.929 C 83.146 95.876,83.099 63.352,83.153 61.990 C 83.174 61.460,106.942 61.396,113.672 61.908 M98.531 133.337 C 104.861 133.595,109.380 134.020,114.931 134.882 C 116.137 135.070,119.444 135.827,122.147 136.534 C 123.485 136.885,127.172 138.047,128.531 138.547 C 129.184 138.787,130.302 139.195,131.017 139.454 C 134.552 140.736,142.833 144.643,143.013 145.114 C 143.055 145.222,143.238 145.311,143.421 145.311 C 143.604 145.311,144.353 145.718,145.085 146.215 C 145.817 146.712,146.475 147.119,146.547 147.119 C 146.845 147.119,153.038 151.388,155.028 152.965 C 160.734 157.488,169.056 165.387,172.099 169.168 C 172.591 169.780,173.608 170.993,174.358 171.864 C 175.109 172.734,176.786 174.873,178.087 176.617 C 179.388 178.360,180.681 180.089,180.961 180.459 C 181.241 180.828,182.352 182.299,183.429 183.729 C 184.506 185.158,185.446 186.379,185.519 186.441 C 185.591 186.503,186.152 187.215,186.766 188.023 C 187.380 188.831,188.652 190.439,189.591 191.598 C 190.531 192.756,191.605 194.099,191.977 194.582 C 193.593 196.672,200.604 204.219,204.633 208.203 C 207.268 210.810,214.099 216.924,216.271 218.621 C 217.203 219.349,218.122 220.109,218.312 220.311 C 218.767 220.793,220.175 221.875,221.582 222.824 C 222.203 223.243,222.763 223.651,222.825 223.731 C 222.887 223.811,223.599 224.318,224.407 224.859 C 225.215 225.399,225.927 225.910,225.989 225.993 C 226.051 226.076,227.373 226.986,228.927 228.015 C 230.480 229.044,231.785 229.975,231.827 230.084 C 231.868 230.193,232.001 230.282,232.122 230.282 C 232.242 230.282,232.940 230.689,233.672 231.186 C 234.404 231.684,235.065 232.090,235.141 232.090 C 235.217 232.090,235.858 232.474,236.566 232.944 C 237.274 233.413,238.158 233.944,238.531 234.122 C 238.904 234.301,239.468 234.621,239.784 234.833 C 240.837 235.540,247.910 239.168,251.299 240.739 C 254.979 242.446,256.111 242.938,256.359 242.938 C 256.510 242.938,256.729 243.023,256.847 243.128 C 257.060 243.316,259.407 244.255,262.034 245.204 C 262.780 245.473,263.593 245.785,263.842 245.897 C 264.781 246.321,270.725 248.190,273.220 248.847 C 274.650 249.224,276.175 249.627,276.610 249.744 C 277.045 249.860,277.859 250.043,278.418 250.149 C 278.977 250.256,281.215 250.701,283.390 251.139 C 285.565 251.577,288.412 252.056,289.718 252.204 C 291.023 252.352,292.643 252.564,293.318 252.677 C 293.994 252.789,295.128 252.881,295.840 252.881 C 297.001 252.881,297.121 252.925,297.020 253.313 C 296.897 253.784,289.821 262.839,287.039 266.085 C 286.089 267.195,284.701 268.834,283.955 269.729 C 280.469 273.912,276.947 277.876,274.358 280.532 L 271.525 283.436 270.395 283.321 C 266.429 282.917,251.251 278.328,243.503 275.190 C 229.706 269.602,220.401 264.800,209.612 257.698 C 203.202 253.479,199.504 250.789,194.291 246.554 C 193.296 245.746,192.115 244.800,191.665 244.452 C 185.287 239.517,167.551 221.214,162.714 214.576 C 162.171 213.831,161.653 213.169,161.564 213.107 C 161.474 213.045,161.009 212.424,160.531 211.728 C 160.052 211.031,158.593 209.033,157.288 207.288 C 153.955 202.832,150.979 198.805,150.097 197.558 C 144.995 190.346,134.301 180.276,127.407 176.192 C 117.169 170.126,107.268 167.830,90.018 167.521 L 83.199 167.399 83.122 150.536 C 83.079 140.996,83.133 133.550,83.245 133.390 C 83.496 133.035,90.522 133.011,98.531 133.337 M149.305 245.367 C 155.111 252.284,162.686 260.001,168.456 264.880 C 171.836 267.738,171.906 267.867,170.629 268.893 C 170.136 269.290,169.195 270.108,168.539 270.712 C 166.909 272.212,165.121 273.645,160.457 277.192 C 153.345 282.599,142.727 288.739,134.124 292.419 C 132.881 292.950,131.508 293.538,131.073 293.724 C 129.364 294.455,124.725 296.074,120.565 297.391 C 114.805 299.214,105.623 301.045,97.966 301.896 C 92.930 302.456,83.658 302.958,83.390 302.685 C 83.171 302.462,83.011 268.552,83.228 268.335 C 83.304 268.259,85.126 268.104,87.276 267.990 C 94.264 267.619,106.535 266.064,107.584 265.415 C 107.682 265.355,108.303 265.205,108.966 265.081 C 110.591 264.778,114.115 263.747,116.723 262.812 C 117.345 262.589,118.260 262.285,118.757 262.137 C 119.254 261.988,119.758 261.777,119.876 261.668 C 119.994 261.558,120.221 261.469,120.380 261.469 C 120.633 261.469,122.517 260.645,125.537 259.214 C 126.034 258.979,126.593 258.729,126.780 258.660 C 126.966 258.590,127.627 258.240,128.249 257.882 C 128.870 257.524,130.090 256.848,130.960 256.379 C 132.691 255.448,138.729 251.521,139.283 250.967 C 139.473 250.777,139.698 250.621,139.782 250.621 C 139.867 250.621,140.764 249.943,141.776 249.114 C 142.788 248.285,143.768 247.482,143.955 247.329 C 144.141 247.176,145.006 246.382,145.876 245.564 C 147.806 243.748,147.939 243.741,149.305 245.367 " stroke="none" fill="#040c2c" fill-rule="evenodd"></path></g></svg>