<svg id="svg" version="1.1" xmlns="http://www.w3.org/2000/svg" xmlns:xlink="http://www.w3.org/1999/xlink" width="400" height="107.16279069767442" viewBox="0, 0, 400,107.16279069767442"><g id="svgg"><path id="path0" d="M24.333 11.504 C 19.960 11.768,15.096 13.179,12.250 15.008 C 11.975 15.185,11.637 15.381,11.500 15.443 C 9.697 16.259,5.037 20.812,4.276 22.500 C 4.214 22.637,4.020 22.975,3.845 23.250 C 3.669 23.525,3.290 24.238,3.002 24.833 C 2.714 25.429,2.371 26.129,2.239 26.389 C 2.108 26.648,2.000 27.000,2.000 27.170 C 2.000 27.341,1.931 27.523,1.846 27.575 C 1.762 27.628,1.642 27.913,1.581 28.210 C 1.519 28.507,1.367 29.087,1.242 29.500 C -0.210 34.305,-0.440 42.419,0.757 46.598 C 0.891 47.064,1.000 47.555,1.000 47.688 C 1.000 47.992,1.929 50.913,2.240 51.583 C 4.318 56.077,6.930 59.456,9.841 61.417 C 10.249 61.692,10.608 61.973,10.639 62.042 C 10.669 62.110,10.765 62.167,10.851 62.167 C 10.936 62.167,11.314 62.361,11.689 62.598 C 13.468 63.720,18.010 65.500,19.098 65.500 C 19.307 65.500,19.671 65.573,19.907 65.663 C 22.236 66.549,31.370 66.547,35.856 65.660 C 39.956 64.849,43.011 63.996,45.167 63.061 L 46.417 62.519 46.459 49.593 L 46.502 36.667 36.168 36.667 L 25.833 36.667 25.833 40.333 L 25.833 44.000 32.002 44.000 L 38.171 44.000 38.127 50.107 L 38.083 56.213 37.333 56.441 C 27.492 59.425,18.143 57.588,13.882 51.833 C 8.797 44.966,9.384 29.943,14.940 24.750 C 16.779 23.031,17.553 22.468,19.020 21.782 C 24.693 19.129,34.023 19.706,39.416 23.044 C 40.714 23.847,42.135 24.796,42.406 25.042 C 42.814 25.410,42.984 25.410,43.110 25.042 C 43.164 24.881,43.379 24.375,43.588 23.917 C 44.477 21.962,46.167 17.830,46.167 17.612 C 46.167 17.481,45.773 17.077,45.292 16.713 C 42.494 14.602,39.573 13.260,35.827 12.367 C 33.203 11.741,32.588 11.646,30.167 11.494 C 27.549 11.330,27.208 11.330,24.333 11.504 M244.917 11.490 C 240.584 11.807,236.605 13.156,232.964 15.543 C 231.292 16.638,230.982 16.890,229.687 18.193 C 228.017 19.875,226.894 21.275,226.232 22.500 C 226.059 22.821,225.870 23.121,225.814 23.167 C 225.661 23.291,224.000 26.788,224.000 26.985 C 224.000 27.079,223.896 27.402,223.770 27.703 C 221.645 32.753,221.423 42.423,223.290 48.583 C 225.558 56.061,230.647 61.952,236.917 64.356 C 237.375 64.532,237.900 64.738,238.083 64.815 C 241.199 66.111,247.242 66.729,251.500 66.185 C 260.932 64.981,267.450 60.108,271.251 51.417 C 271.754 50.266,272.128 49.106,272.672 47.013 C 274.626 39.498,273.331 29.090,269.684 23.000 C 267.895 20.011,263.586 15.500,262.521 15.500 C 262.433 15.500,262.336 15.439,262.306 15.365 C 262.275 15.291,261.800 14.972,261.250 14.657 C 256.868 12.143,251.146 11.034,244.917 11.490 M127.278 12.111 C 127.217 12.172,127.167 24.247,127.167 38.944 L 127.167 65.667 131.917 65.667 L 136.667 65.667 136.667 62.988 C 136.667 60.607,136.694 60.337,136.917 60.560 C 137.054 60.697,137.167 60.861,137.167 60.923 C 137.167 61.187,138.613 62.734,139.492 63.411 C 145.456 68.000,154.944 67.205,160.135 61.681 C 165.415 56.063,166.672 44.283,162.833 36.400 C 161.597 33.862,158.591 30.333,157.665 30.333 C 157.574 30.333,157.500 30.269,157.500 30.191 C 157.500 29.990,155.293 28.923,154.000 28.499 C 151.155 27.565,145.786 27.467,144.194 28.319 C 144.008 28.418,143.727 28.500,143.571 28.500 C 143.199 28.500,140.167 30.006,140.167 30.191 C 140.167 30.269,140.085 30.333,139.985 30.333 C 139.771 30.333,137.719 32.361,137.202 33.083 L 136.844 33.583 136.839 22.792 L 136.833 12.000 132.111 12.000 C 129.514 12.000,127.339 12.050,127.278 12.111 M173.614 12.109 C 173.551 12.171,173.500 24.247,173.500 38.944 L 173.500 65.667 178.501 65.667 L 183.501 65.667 183.459 38.875 L 183.417 12.083 178.572 12.039 C 175.907 12.015,173.676 12.046,173.614 12.109 M196.111 17.444 C 196.050 17.506,196.000 20.018,196.000 23.028 L 196.000 28.500 192.500 28.500 L 189.000 28.500 189.000 32.167 L 189.000 35.833 192.500 35.833 L 196.000 35.833 196.000 43.550 C 196.000 54.746,196.337 57.664,197.917 60.168 C 198.146 60.530,198.333 60.869,198.333 60.920 C 198.333 61.391,201.202 64.047,202.263 64.560 C 203.716 65.262,203.819 65.302,205.000 65.643 C 209.018 66.803,213.835 66.602,217.625 65.115 C 218.585 64.739,218.563 64.778,218.351 63.782 C 218.268 63.398,218.078 62.483,217.927 61.750 C 217.775 61.017,217.543 59.954,217.409 59.389 C 217.276 58.824,217.167 58.160,217.167 57.913 C 217.167 57.505,217.125 57.475,216.708 57.584 C 210.830 59.128,207.599 58.202,206.241 54.583 C 205.953 53.814,205.924 53.063,205.872 44.792 L 205.815 35.833 211.407 35.833 L 217.000 35.833 217.000 32.167 L 217.000 28.500 211.417 28.500 L 205.833 28.500 205.833 22.917 L 205.833 17.333 201.028 17.333 C 198.385 17.333,196.172 17.383,196.111 17.444 M250.078 20.101 C 255.288 20.539,260.546 24.910,261.844 29.882 C 261.921 30.176,262.163 31.092,262.382 31.917 C 263.339 35.531,263.398 42.015,262.504 45.333 C 261.776 48.034,260.498 51.015,259.578 52.158 C 256.427 56.076,252.766 57.833,247.757 57.833 C 244.659 57.833,239.494 56.235,239.028 55.132 C 238.997 55.059,238.908 55.000,238.830 55.000 C 238.552 55.000,237.109 53.566,236.314 52.500 C 235.869 51.904,235.448 51.342,235.378 51.250 C 232.417 47.398,231.488 37.020,233.526 30.583 C 235.141 25.485,238.610 21.839,243.063 20.558 C 244.142 20.248,247.396 19.846,248.167 19.927 C 248.487 19.961,249.347 20.039,250.078 20.101 M77.917 27.615 C 74.133 28.111,72.222 28.605,70.781 29.458 C 70.433 29.665,70.106 29.833,70.056 29.833 C 69.554 29.833,67.329 32.095,66.614 33.333 L 66.083 34.250 66.038 31.375 L 65.992 28.500 61.246 28.500 L 56.500 28.500 56.500 47.086 L 56.500 65.672 61.458 65.627 L 66.417 65.583 66.508 54.250 C 66.605 42.300,66.595 42.444,67.437 40.835 C 68.836 38.166,72.696 36.172,76.477 36.165 C 77.189 36.164,81.036 35.710,81.082 35.622 C 81.136 35.518,80.849 31.341,80.663 29.542 L 80.453 27.500 79.435 27.525 C 78.875 27.539,78.192 27.579,77.917 27.615 M98.417 27.909 C 94.745 28.341,90.978 29.407,88.189 30.802 C 85.386 32.204,85.462 32.122,85.962 33.205 C 86.143 33.596,86.727 34.967,87.260 36.250 C 87.794 37.533,88.283 38.648,88.349 38.726 C 88.415 38.804,89.394 38.415,90.526 37.860 C 94.564 35.880,97.402 35.156,101.173 35.141 C 106.550 35.121,108.256 36.667,108.607 41.875 L 108.717 43.500 105.409 43.500 C 97.701 43.500,92.473 44.289,89.042 45.970 C 88.377 46.295,87.833 46.623,87.833 46.698 C 87.833 46.772,87.755 46.833,87.659 46.833 C 87.352 46.833,86.136 48.057,85.565 48.942 C 83.638 51.927,83.692 56.960,85.687 60.263 C 90.215 67.761,103.255 68.585,107.935 61.668 L 108.667 60.587 108.667 63.127 L 108.667 65.667 113.250 65.667 L 117.833 65.667 117.833 53.375 C 117.832 39.287,117.782 38.603,116.522 35.417 C 114.236 29.635,107.497 26.841,98.417 27.909 M301.250 27.907 C 297.531 28.457,293.916 30.542,292.134 33.167 C 291.862 33.567,291.850 33.486,291.842 31.042 L 291.833 28.500 287.000 28.500 L 282.167 28.500 282.167 47.083 L 282.167 65.667 286.991 65.667 L 291.816 65.667 291.884 54.458 C 291.956 42.733,291.964 42.590,292.704 40.667 C 295.112 34.408,304.808 33.337,306.841 39.104 L 307.246 40.250 307.331 52.917 L 307.417 65.583 312.299 65.628 L 317.182 65.672 317.113 52.461 C 317.041 38.534,317.046 38.634,316.252 35.917 C 314.454 29.763,308.870 26.782,301.250 27.907 M148.660 35.498 C 153.165 36.937,155.172 40.477,155.162 46.969 C 155.151 54.743,152.020 58.862,146.110 58.878 C 140.937 58.892,137.809 55.748,136.924 49.645 C 135.535 40.074,141.285 33.142,148.660 35.498 M108.667 50.174 C 108.667 54.865,105.951 58.546,101.833 59.433 C 97.359 60.397,93.600 57.956,93.596 54.083 C 93.593 51.410,95.493 50.033,99.917 49.502 C 100.833 49.392,101.696 49.280,101.833 49.254 C 101.971 49.227,103.565 49.197,105.375 49.186 L 108.667 49.167 108.667 50.174 M137.052 81.492 C 135.783 82.266,135.787 84.199,137.059 84.985 C 138.842 86.087,141.186 84.412,140.475 82.544 C 139.996 81.285,138.265 80.752,137.052 81.492 M247.153 81.936 C 245.385 82.479,244.370 83.920,244.215 86.107 L 244.117 87.500 242.975 87.500 L 241.833 87.500 241.833 88.917 L 241.833 90.333 243.000 90.333 L 244.167 90.333 244.167 96.000 L 244.167 101.667 245.917 101.667 L 247.667 101.667 247.667 96.000 L 247.667 90.333 249.583 90.333 L 251.500 90.333 251.500 88.917 L 251.500 87.500 249.583 87.500 L 247.667 87.500 247.667 86.734 C 247.667 84.771,249.589 83.825,251.118 85.036 C 251.383 85.246,251.607 85.093,251.713 84.627 C 251.761 84.420,251.950 83.859,252.133 83.382 C 252.432 82.604,252.440 82.491,252.210 82.300 C 251.482 81.696,248.608 81.489,247.153 81.936 M144.000 91.833 L 144.000 101.667 145.750 101.667 L 147.500 101.667 147.508 99.875 L 147.516 98.083 148.745 96.955 L 149.974 95.826 150.515 96.580 C 150.813 96.994,151.119 97.333,151.195 97.333 C 151.271 97.333,151.333 97.440,151.333 97.569 C 151.333 97.699,151.399 97.831,151.479 97.861 C 151.559 97.892,152.099 98.517,152.679 99.250 C 153.259 99.983,153.906 100.770,154.117 100.998 C 154.328 101.227,154.500 101.470,154.500 101.540 C 154.500 101.610,155.512 101.667,156.750 101.667 C 158.862 101.667,159.342 101.560,158.784 101.217 C 158.665 101.143,158.197 100.596,157.744 100.000 C 157.291 99.404,156.792 98.767,156.635 98.583 C 156.478 98.400,156.027 97.828,155.633 97.313 C 155.239 96.797,154.399 95.722,153.766 94.923 L 152.616 93.471 155.598 90.485 L 158.580 87.500 156.373 87.500 C 154.497 87.500,154.122 87.544,153.866 87.792 C 153.701 87.952,152.744 88.833,151.741 89.750 C 148.520 92.692,148.281 92.912,147.971 93.208 C 147.804 93.369,147.629 93.500,147.583 93.500 C 147.537 93.500,147.500 90.912,147.500 87.750 L 147.500 82.000 145.750 82.000 L 144.000 82.000 144.000 91.833 M27.500 87.533 C 24.086 88.502,22.253 90.744,22.046 94.206 C 21.938 96.027,22.635 98.833,23.195 98.833 C 23.271 98.833,23.333 98.907,23.333 98.998 C 23.333 99.733,25.672 101.294,27.500 101.779 C 32.631 103.140,37.333 99.739,37.333 94.667 C 37.333 89.671,32.450 86.128,27.500 87.533 M64.167 87.571 C 63.250 87.824,62.748 88.100,62.042 88.741 L 61.500 89.232 61.500 88.366 L 61.500 87.500 59.833 87.500 L 58.167 87.500 58.167 94.583 L 58.167 101.667 59.917 101.667 L 61.667 101.667 61.667 98.507 C 61.667 92.307,62.502 90.667,65.661 90.667 L 66.667 90.667 66.667 89.000 L 66.667 87.333 65.792 87.348 C 65.310 87.356,64.579 87.456,64.167 87.571 M82.352 87.662 C 81.859 87.830,81.127 88.199,80.727 88.481 L 80.000 88.993 80.000 88.247 L 80.000 87.500 78.333 87.500 L 76.667 87.500 76.667 94.583 L 76.667 101.667 78.417 101.667 L 80.167 101.667 80.167 98.340 C 80.167 91.904,80.788 90.595,83.846 90.587 C 86.554 90.580,86.878 91.266,86.970 97.208 L 87.039 101.667 88.753 101.667 L 90.467 101.667 90.530 97.375 C 90.615 91.584,91.189 90.474,94.083 90.510 C 96.704 90.544,97.152 91.639,97.161 98.042 L 97.167 101.667 98.917 101.667 L 100.667 101.667 100.661 97.042 C 100.654 91.511,100.545 90.855,99.357 89.197 C 97.647 86.810,92.619 86.686,90.011 88.966 L 89.438 89.466 89.115 89.056 C 87.921 87.537,84.680 86.870,82.352 87.662 M125.583 87.539 C 122.868 88.207,121.667 89.533,121.667 91.862 C 121.667 94.455,122.632 95.254,126.754 96.069 C 127.489 96.214,128.261 96.333,128.469 96.333 C 128.979 96.333,130.101 96.921,130.229 97.257 C 130.968 99.181,126.943 99.737,123.598 98.173 C 123.002 97.895,122.482 97.667,122.443 97.667 C 122.337 97.667,121.167 100.080,121.167 100.300 C 121.167 100.998,124.772 102.000,127.283 102.000 C 131.343 102.000,133.827 100.338,133.832 97.620 C 133.836 95.001,132.562 94.038,127.936 93.164 C 125.918 92.782,125.614 92.662,125.246 92.101 C 124.238 90.562,127.530 89.652,130.417 90.671 C 132.189 91.296,132.057 91.331,132.731 90.063 C 133.497 88.619,133.491 88.556,132.547 88.151 C 130.848 87.423,127.319 87.113,125.583 87.539 M194.167 87.588 C 190.143 88.730,187.963 92.642,189.060 96.750 C 190.917 103.704,201.638 103.872,203.839 96.981 C 205.694 91.174,200.229 85.867,194.167 87.588 M231.167 87.571 C 230.174 87.847,229.509 88.204,228.955 88.757 L 228.500 89.212 228.500 88.356 L 228.500 87.500 226.833 87.500 L 225.167 87.500 225.167 94.583 L 225.167 101.667 226.895 101.667 L 228.623 101.667 228.700 97.542 C 228.805 91.867,229.501 90.667,232.680 90.667 L 233.667 90.667 233.667 89.000 L 233.667 87.333 232.792 87.348 C 232.310 87.356,231.579 87.457,231.167 87.571 M256.023 87.599 C 254.915 87.841,252.848 88.767,252.730 89.074 C 252.659 89.261,253.750 91.429,253.990 91.577 C 254.067 91.625,254.477 91.470,254.901 91.233 C 257.931 89.539,261.202 90.275,261.739 92.771 L 261.851 93.293 258.717 93.373 C 254.103 93.490,252.167 94.731,252.167 97.572 C 252.167 101.463,258.469 103.673,261.494 100.843 C 261.721 100.631,261.756 100.664,261.802 101.135 L 261.854 101.667 263.511 101.667 L 265.167 101.667 265.167 96.545 C 265.167 91.343,264.956 89.667,264.303 89.667 C 264.228 89.667,264.167 89.587,264.167 89.491 C 264.167 87.981,259.369 86.867,256.023 87.599 M275.250 87.573 C 274.320 87.846,273.654 88.183,273.167 88.627 L 272.750 89.006 272.699 88.253 L 272.648 87.500 270.991 87.500 L 269.333 87.500 269.333 94.583 L 269.333 101.667 271.062 101.667 L 272.791 101.667 272.866 97.375 C 272.962 91.914,273.407 90.869,275.762 90.575 C 279.046 90.164,279.667 91.358,279.667 98.090 L 279.667 101.667 281.417 101.667 L 283.167 101.667 283.167 97.505 C 283.167 92.072,283.622 90.939,285.951 90.571 C 289.142 90.066,289.833 91.405,289.833 98.090 L 289.833 101.667 291.583 101.667 L 293.333 101.667 293.333 97.053 C 293.333 90.977,292.939 89.557,290.884 88.235 C 288.532 86.720,283.984 87.244,282.359 89.217 C 282.156 89.464,282.085 89.437,281.609 88.940 C 280.255 87.526,277.457 86.924,275.250 87.573 M301.500 87.565 C 294.198 89.703,294.437 99.999,301.830 101.768 C 304.582 102.426,307.947 101.735,309.531 100.187 C 310.110 99.621,310.107 99.612,308.928 98.283 L 308.105 97.355 307.614 97.769 C 305.044 99.931,299.833 98.677,299.833 95.896 C 299.833 95.862,302.308 95.833,305.333 95.833 L 310.833 95.833 310.833 94.366 C 310.833 89.510,306.254 86.173,301.500 87.565 M5.833 87.632 C 5.833 87.773,6.879 90.256,7.497 91.583 C 7.668 91.950,8.272 93.337,8.840 94.667 C 9.408 95.996,9.939 97.155,10.020 97.242 C 10.100 97.329,10.167 97.495,10.167 97.610 C 10.167 97.726,10.419 98.367,10.727 99.035 C 11.832 101.430,11.868 101.533,11.771 102.021 C 11.363 104.062,8.955 104.772,7.272 103.347 C 6.918 103.047,6.836 103.131,5.958 104.698 C 5.327 105.826,5.355 105.907,6.584 106.488 C 9.304 107.773,12.680 106.920,14.122 104.583 C 14.595 103.817,16.000 100.721,16.000 100.445 C 16.000 100.329,16.067 100.162,16.150 100.075 C 16.232 99.988,16.729 98.904,17.253 97.667 C 17.778 96.429,18.356 95.079,18.538 94.667 C 18.720 94.254,18.984 93.654,19.125 93.333 C 19.267 93.013,19.439 92.632,19.508 92.487 C 19.577 92.343,20.062 91.218,20.586 89.987 C 21.110 88.757,21.573 87.691,21.616 87.619 C 21.659 87.547,20.894 87.510,19.917 87.536 L 18.141 87.583 17.395 89.333 C 16.985 90.296,16.497 91.421,16.310 91.833 C 16.123 92.246,15.908 92.733,15.833 92.917 C 15.658 93.345,15.044 94.772,14.757 95.417 C 13.957 97.218,13.778 97.565,13.724 97.417 C 13.690 97.325,12.733 95.075,11.596 92.417 L 9.528 87.583 7.681 87.536 C 6.665 87.510,5.833 87.554,5.833 87.632 M40.201 92.542 C 40.258 98.157,40.367 98.768,41.552 100.117 C 43.573 102.419,48.086 102.706,50.375 100.677 L 50.833 100.271 50.833 100.969 L 50.833 101.667 52.500 101.667 L 54.167 101.667 54.167 94.583 L 54.167 87.500 52.433 87.500 L 50.699 87.500 50.641 91.875 C 50.579 96.584,50.564 96.667,49.586 97.808 C 48.403 99.187,45.602 99.199,44.531 97.830 C 43.811 96.909,43.667 95.863,43.667 91.553 L 43.667 87.500 41.908 87.500 L 40.149 87.500 40.201 92.542 M104.667 92.220 C 104.667 97.848,104.841 98.792,106.149 100.227 C 108.183 102.461,112.644 102.653,114.958 100.607 L 115.333 100.275 115.333 100.971 L 115.333 101.667 117.000 101.667 L 118.667 101.667 118.667 94.583 L 118.667 87.500 116.917 87.500 L 115.167 87.500 115.163 91.292 C 115.156 97.439,114.479 98.833,111.502 98.833 C 108.687 98.833,108.167 97.699,108.167 91.553 L 108.167 87.500 106.417 87.500 L 104.667 87.500 104.667 92.220 M136.500 94.583 L 136.500 101.667 138.250 101.667 L 140.000 101.667 140.000 94.583 L 140.000 87.500 138.250 87.500 L 136.500 87.500 136.500 94.583 M172.712 87.625 C 172.858 87.906,173.339 89.009,174.000 90.583 C 174.385 91.500,174.767 92.321,174.850 92.408 C 174.932 92.495,175.000 92.659,175.000 92.772 C 175.000 92.884,175.217 93.451,175.482 94.030 C 176.413 96.067,176.837 97.018,177.269 98.046 C 177.509 98.616,177.842 99.383,178.009 99.750 C 178.797 101.481,178.855 101.711,178.642 102.243 C 177.897 104.104,176.562 104.593,174.765 103.661 C 174.229 103.382,173.772 103.176,173.749 103.202 C 173.531 103.460,172.501 105.520,172.505 105.692 C 172.531 106.809,176.882 107.476,178.751 106.649 C 179.941 106.123,180.860 105.095,181.659 103.399 C 182.496 101.622,182.732 101.101,183.051 100.333 C 183.184 100.013,183.490 99.317,183.730 98.787 C 183.970 98.258,184.167 97.729,184.167 97.612 C 184.167 97.495,184.234 97.329,184.317 97.242 C 184.399 97.155,184.781 96.341,185.165 95.433 C 185.548 94.525,185.920 93.663,185.990 93.516 C 186.060 93.370,186.234 92.987,186.376 92.667 C 186.518 92.346,186.787 91.746,186.974 91.333 C 187.161 90.921,187.612 89.890,187.978 89.042 L 188.642 87.500 186.925 87.500 C 184.940 87.500,185.114 87.375,184.269 89.417 C 183.542 91.172,183.490 91.294,182.949 92.500 C 182.723 93.004,182.368 93.829,182.161 94.333 C 181.953 94.837,181.554 95.760,181.273 96.383 L 180.762 97.517 180.284 96.467 C 180.021 95.889,179.744 95.267,179.668 95.083 C 179.592 94.900,179.382 94.412,179.201 94.000 C 179.020 93.587,178.630 92.650,178.334 91.917 C 178.038 91.183,177.629 90.208,177.424 89.750 C 177.219 89.292,176.916 88.598,176.751 88.208 L 176.449 87.500 174.548 87.500 C 173.503 87.500,172.676 87.556,172.712 87.625 M207.000 92.266 C 207.000 97.734,207.157 98.678,208.285 99.996 C 210.385 102.449,214.865 102.753,217.292 100.607 L 217.667 100.275 217.667 100.971 L 217.667 101.667 219.333 101.667 L 221.000 101.667 221.000 94.583 L 221.000 87.500 219.250 87.500 L 217.500 87.500 217.500 91.222 C 217.500 97.343,216.774 98.833,213.791 98.833 C 211.017 98.833,210.518 97.726,210.507 91.542 L 210.500 87.500 208.750 87.500 L 207.000 87.500 207.000 92.266 M305.472 90.653 C 306.519 91.186,307.135 91.952,307.396 93.042 L 307.506 93.500 303.652 93.500 L 299.797 93.500 299.900 93.091 C 300.495 90.718,303.244 89.516,305.472 90.653 M30.696 90.536 C 35.298 91.585,34.360 98.863,29.623 98.863 C 24.319 98.863,24.229 90.678,29.529 90.351 C 29.682 90.341,30.207 90.424,30.696 90.536 M197.529 90.536 C 202.119 91.582,201.181 98.863,196.456 98.863 C 191.999 98.863,190.782 91.758,195.051 90.662 C 195.436 90.563,195.825 90.455,195.917 90.421 C 196.233 90.305,196.644 90.334,197.529 90.536 M261.833 96.423 C 261.833 98.975,257.525 100.508,256.093 98.464 C 254.867 96.712,256.307 95.741,260.208 95.689 L 261.833 95.667 261.833 96.423 M161.554 97.602 C 159.932 98.402,159.882 100.869,161.470 101.792 C 162.384 102.322,163.932 101.893,164.507 100.950 C 165.713 98.972,163.610 96.588,161.554 97.602 M313.961 97.676 C 312.409 98.496,312.435 100.941,314.005 101.753 C 315.602 102.578,317.334 101.530,317.333 99.740 C 317.331 97.842,315.625 96.798,313.961 97.676 " stroke="none" fill="#fcfcfc" fill-rule="evenodd"></path><path id="path1" d="M328.611 10.778 C 328.382 11.007,328.484 21.613,328.717 21.806 C 328.852 21.918,330.264 22.012,332.426 22.054 C 334.346 22.090,336.329 22.203,336.833 22.303 C 337.337 22.404,338.237 22.537,338.833 22.599 C 339.429 22.661,339.994 22.772,340.087 22.845 C 340.181 22.919,340.669 23.032,341.171 23.097 C 341.673 23.162,342.231 23.316,342.412 23.441 C 342.593 23.565,342.913 23.667,343.123 23.667 C 343.333 23.667,343.635 23.736,343.794 23.820 C 343.953 23.904,344.554 24.139,345.129 24.342 C 345.703 24.544,346.214 24.775,346.263 24.855 C 346.313 24.935,346.491 25.000,346.659 25.000 C 346.976 25.000,350.723 26.868,351.167 27.246 C 351.304 27.364,351.642 27.575,351.917 27.716 C 352.192 27.857,352.567 28.109,352.750 28.278 C 352.933 28.446,353.396 28.796,353.778 29.055 C 354.721 29.695,357.450 32.427,357.968 33.250 C 358.199 33.617,358.567 34.108,358.786 34.341 C 359.005 34.574,359.634 35.399,360.184 36.174 C 360.733 36.949,361.283 37.705,361.405 37.854 C 361.528 38.003,362.044 38.753,362.554 39.521 C 365.254 43.590,368.942 47.786,372.064 50.341 C 372.787 50.933,373.713 51.700,374.122 52.047 C 374.846 52.660,375.832 53.351,377.568 54.459 C 378.035 54.757,379.429 55.494,380.667 56.098 C 381.904 56.701,383.200 57.339,383.547 57.514 C 383.893 57.690,384.310 57.833,384.472 57.833 C 384.634 57.833,384.842 57.909,384.935 58.002 C 385.028 58.094,385.605 58.319,386.218 58.502 C 386.832 58.684,387.840 58.990,388.458 59.182 C 389.077 59.373,390.446 59.704,391.500 59.917 C 392.554 60.130,393.679 60.385,393.999 60.485 C 394.319 60.585,394.923 60.667,395.341 60.667 C 395.758 60.667,396.175 60.741,396.266 60.833 C 396.358 60.924,397.235 61.048,398.216 61.108 L 400.000 61.217 400.000 55.676 C 400.000 48.936,400.063 49.172,398.256 49.157 C 397.611 49.151,396.708 49.073,396.250 48.983 C 395.792 48.893,395.030 48.755,394.558 48.676 C 393.640 48.523,390.803 47.753,390.250 47.508 C 390.067 47.426,389.542 47.233,389.083 47.078 C 387.819 46.650,385.982 45.836,385.830 45.635 C 385.782 45.572,385.557 45.441,385.330 45.344 C 384.842 45.135,384.563 44.968,383.307 44.130 C 382.788 43.783,382.282 43.500,382.182 43.500 C 382.082 43.500,382.000 43.441,382.000 43.369 C 382.000 43.297,381.756 43.096,381.458 42.922 C 380.789 42.530,375.864 37.625,375.316 36.804 C 375.096 36.475,374.467 35.614,373.917 34.890 C 373.367 34.166,372.842 33.451,372.750 33.301 C 372.432 32.779,371.265 31.082,371.091 30.889 C 370.995 30.782,370.579 30.194,370.167 29.582 C 369.754 28.970,369.098 28.087,368.708 27.620 C 368.319 27.152,368.000 26.698,368.000 26.610 C 368.000 26.522,367.756 26.209,367.458 25.914 C 367.160 25.620,366.418 24.862,365.808 24.231 C 362.941 21.264,361.015 19.665,358.205 17.917 C 358.057 17.825,357.493 17.431,356.950 17.042 C 356.407 16.652,355.858 16.333,355.728 16.333 C 355.599 16.333,355.196 16.146,354.833 15.917 C 354.470 15.688,354.140 15.500,354.100 15.500 C 354.060 15.500,353.314 15.162,352.443 14.750 C 351.573 14.338,350.772 14.000,350.664 14.000 C 350.556 14.000,350.269 13.895,350.026 13.767 C 349.782 13.640,349.133 13.405,348.583 13.245 C 348.033 13.086,347.321 12.863,347.000 12.749 C 346.164 12.452,345.045 12.166,344.083 12.002 C 343.625 11.924,343.025 11.782,342.750 11.688 C 342.475 11.593,341.275 11.395,340.083 11.247 C 338.892 11.099,337.617 10.910,337.250 10.827 C 336.487 10.653,328.780 10.609,328.611 10.778 M328.708 34.515 C 328.480 34.754,328.426 45.196,328.649 46.000 L 328.764 46.417 331.757 46.503 C 333.878 46.565,334.993 46.669,335.583 46.863 C 336.042 47.013,336.849 47.268,337.378 47.429 C 337.907 47.591,338.422 47.823,338.523 47.945 C 338.625 48.067,338.867 48.170,339.062 48.174 C 339.257 48.178,339.693 48.347,340.032 48.549 C 340.370 48.751,341.141 49.212,341.746 49.574 C 342.818 50.214,344.690 51.963,345.621 53.195 C 346.168 53.919,347.770 56.011,347.961 56.250 C 348.290 56.664,349.167 58.028,349.170 58.133 C 349.172 58.198,349.323 58.438,349.505 58.667 C 349.688 58.896,350.342 59.832,350.960 60.747 C 351.982 62.261,357.263 67.846,359.083 69.338 C 359.358 69.563,360.059 70.140,360.641 70.620 C 361.223 71.100,362.461 71.997,363.391 72.615 C 364.322 73.232,365.121 73.786,365.167 73.846 C 365.212 73.906,365.438 74.013,365.667 74.083 C 365.896 74.153,366.458 74.446,366.917 74.733 C 368.143 75.501,368.468 75.667,368.748 75.667 C 368.886 75.667,369.000 75.724,369.000 75.794 C 369.000 75.864,369.394 76.097,369.875 76.312 C 370.356 76.527,371.200 76.910,371.750 77.163 C 372.300 77.416,372.938 77.679,373.167 77.747 C 373.631 77.885,374.406 78.204,375.435 78.682 C 375.812 78.857,376.223 79.000,376.350 79.000 C 376.632 79.000,379.718 79.960,380.442 80.273 C 380.731 80.398,381.203 80.500,381.492 80.500 C 381.780 80.500,382.226 80.608,382.482 80.741 C 383.341 81.185,385.404 81.267,385.771 80.871 C 386.473 80.113,386.794 79.712,387.301 78.958 C 388.676 76.913,388.932 76.556,389.298 76.167 C 390.016 75.402,392.500 71.551,392.500 71.202 C 392.500 70.799,391.172 70.333,390.026 70.333 C 389.656 70.333,389.309 70.263,389.256 70.176 C 389.203 70.090,388.804 69.972,388.371 69.915 C 387.938 69.857,387.433 69.746,387.250 69.668 C 387.067 69.590,386.579 69.480,386.167 69.423 C 385.754 69.366,385.192 69.253,384.917 69.170 C 384.642 69.087,383.817 68.856,383.083 68.657 C 382.350 68.457,381.679 68.228,381.592 68.147 C 381.505 68.066,381.280 67.998,381.092 67.995 C 380.904 67.992,380.604 67.879,380.426 67.745 C 380.249 67.610,379.973 67.500,379.815 67.500 C 379.359 67.500,373.693 64.873,373.333 64.496 C 373.287 64.447,372.513 63.972,371.612 63.439 C 370.151 62.574,368.530 61.428,366.133 59.567 C 364.872 58.587,363.658 57.370,362.076 55.500 C 361.262 54.538,360.499 53.690,360.381 53.617 C 360.263 53.543,360.167 53.417,360.167 53.336 C 360.167 53.254,359.829 52.695,359.417 52.092 C 359.004 51.490,358.667 50.957,358.667 50.908 C 358.667 50.859,358.591 50.729,358.499 50.618 C 358.122 50.164,356.352 47.683,355.741 46.750 C 355.120 45.804,351.526 42.050,350.083 40.842 C 348.433 39.460,343.992 37.010,342.417 36.612 C 342.233 36.566,341.671 36.364,341.167 36.164 C 340.662 35.964,340.063 35.766,339.833 35.724 C 339.604 35.683,338.929 35.542,338.333 35.411 C 334.587 34.591,329.121 34.082,328.708 34.515 M341.917 65.555 C 341.642 65.663,341.192 65.872,340.917 66.020 C 340.460 66.267,339.520 66.604,337.500 67.246 C 336.175 67.668,334.829 67.833,331.840 67.940 C 330.232 67.998,328.823 68.119,328.708 68.210 C 328.484 68.387,328.434 77.003,328.644 79.167 L 328.750 80.250 331.583 80.246 C 335.037 80.241,337.747 80.044,338.417 79.749 C 338.692 79.628,339.292 79.477,339.750 79.415 C 341.640 79.156,345.797 77.454,347.774 76.129 C 348.154 75.875,348.544 75.667,348.641 75.667 C 348.738 75.667,348.877 75.571,348.950 75.454 C 349.023 75.337,349.402 74.993,349.792 74.690 C 350.956 73.784,350.878 73.605,348.116 70.820 C 346.804 69.498,345.289 67.829,344.748 67.110 C 343.368 65.277,343.059 65.107,341.917 65.555 M361.188 82.841 C 360.856 82.978,360.356 83.332,359.250 84.213 C 358.661 84.683,356.953 85.850,356.253 86.262 C 355.797 86.530,355.272 86.840,355.087 86.950 C 354.500 87.300,351.697 88.645,350.790 89.013 C 350.310 89.208,349.767 89.431,349.583 89.509 C 348.843 89.821,345.975 90.659,344.250 91.066 C 343.242 91.305,341.954 91.612,341.389 91.750 C 340.824 91.887,339.985 92.000,339.525 92.000 C 339.065 92.000,338.506 92.069,338.283 92.154 C 338.060 92.239,335.872 92.349,333.420 92.399 C 330.260 92.464,328.891 92.550,328.716 92.695 C 328.376 92.977,328.455 103.689,328.801 104.033 C 329.158 104.390,340.121 104.344,340.674 103.984 C 340.924 103.821,341.626 103.681,342.477 103.623 C 343.244 103.571,343.953 103.447,344.052 103.348 C 344.152 103.248,344.596 103.167,345.039 103.167 C 345.482 103.167,346.011 103.063,346.214 102.936 C 346.417 102.809,346.992 102.654,347.490 102.592 C 347.989 102.531,348.477 102.429,348.574 102.366 C 348.890 102.162,349.909 101.838,350.250 101.833 C 350.626 101.828,351.767 101.455,351.941 101.281 C 352.004 101.218,352.216 101.167,352.411 101.167 C 352.607 101.167,352.838 101.100,352.925 101.018 C 353.012 100.937,353.571 100.704,354.167 100.501 C 355.510 100.044,355.659 99.983,357.013 99.348 C 357.616 99.065,358.220 98.833,358.355 98.833 C 358.490 98.833,358.671 98.768,358.758 98.689 C 358.845 98.609,359.479 98.257,360.167 97.905 C 360.854 97.553,361.679 97.106,362.000 96.911 C 362.321 96.716,363.108 96.271,363.750 95.922 C 364.392 95.573,364.954 95.238,365.000 95.178 C 365.106 95.039,367.326 93.500,367.420 93.500 C 367.458 93.500,368.074 93.066,368.787 92.536 C 369.500 92.006,370.308 91.431,370.583 91.259 C 370.858 91.086,371.373 90.658,371.728 90.306 C 372.082 89.954,372.476 89.667,372.602 89.667 C 372.862 89.667,373.833 88.400,373.833 88.062 C 373.833 87.735,373.225 87.393,371.829 86.937 C 370.468 86.491,369.045 85.954,368.225 85.576 C 367.936 85.442,367.648 85.333,367.584 85.333 C 367.468 85.333,365.876 84.542,363.777 83.441 C 362.497 82.769,361.769 82.600,361.188 82.841 " stroke="none" fill="#0484ac" fill-rule="evenodd"></path></g></svg>